<svg id="visual" viewBox="0 0 900 600" width="900" height="600" xmlns="http://www.w3.org/2000/svg" xmlns:xlink="http://www.w3.org/1999/xlink" version="1.1"><path d="M0 163L13.7 164C27.3 165 54.7 167 82 162C109.3 157 136.7 145 163.8 147C191 149 218 165 245.2 161C272.3 157 299.7 133 327 122C354.3 111 381.7 113 409 116C436.3 119 463.7 123 491 135C518.3 147 545.7 167 573 167C600.3 167 627.7 147 654.8 147C682 147 709 167 736.2 173C763.3 179 790.7 171 818 159C845.3 147 872.7 131 886.3 123L900 115L900 0L886.3 0C872.7 0 845.3 0 818 0C790.7 0 763.3 0 736.2 0C709 0 682 0 654.8 0C627.7 0 600.3 0 573 0C545.7 0 518.3 0 491 0C463.7 0 436.3 0 409 0C381.7 0 354.3 0 327 0C299.7 0 272.3 0 245.2 0C218 0 191 0 163.8 0C136.7 0 109.3 0 82 0C54.7 0 27.3 0 13.7 0L0 0Z" fill="#635995"></path><path d="M0 283L13.7 285C27.3 287 54.7 291 82 281C109.3 271 136.7 247 163.8 238C191 229 218 235 245.2 226C272.3 217 299.7 193 327 189C354.3 185 381.7 201 409 202C436.3 203 463.7 189 491 200C518.3 211 545.7 247 573 256C600.3 265 627.7 247 654.8 249C682 251 709 273 736.2 275C763.3 277 790.7 259 818 238C845.3 217 872.7 193 886.3 181L900 169L900 113L886.3 121C872.7 129 845.3 145 818 157C790.7 169 763.3 177 736.2 171C709 165 682 145 654.8 145C627.7 145 600.3 165 573 165C545.7 165 518.3 145 491 133C463.7 121 436.3 117 409 114C381.7 111 354.3 109 327 120C299.7 131 272.3 155 245.2 159C218 163 191 147 163.8 145C136.7 143 109.3 155 82 160C54.7 165 27.3 163 13.7 162L0 161Z" fill="#4f4584"></path><path d="M0 403L13.7 412C27.3 421 54.7 439 82 449C109.3 459 136.7 461 163.8 455C191 449 218 435 245.2 439C272.3 443 299.7 465 327 467C354.3 469 381.7 451 409 435C436.3 419 463.7 405 491 401C518.3 397 545.7 403 573 404C600.3 405 627.7 401 654.8 402C682 403 709 409 736.2 413C763.3 417 790.7 419 818 407C845.3 395 872.7 369 886.3 356L900 343L900 167L886.3 179C872.7 191 845.3 215 818 236C790.7 257 763.3 275 736.2 273C709 271 682 249 654.8 247C627.7 245 600.3 263 573 254C545.7 245 518.3 209 491 198C463.7 187 436.3 201 409 200C381.7 199 354.3 183 327 187C299.7 191 272.3 215 245.2 224C218 233 191 227 163.8 236C136.7 245 109.3 269 82 279C54.7 289 27.3 285 13.7 283L0 281Z" fill="#3b3273"></path><path d="M0 559L13.7 559C27.3 559 54.7 559 82 554C109.3 549 136.7 539 163.8 540C191 541 218 553 245.2 559C272.3 565 299.7 565 327 554C354.3 543 381.7 521 409 521C436.3 521 463.7 543 491 553C518.3 563 545.7 561 573 553C600.3 545 627.7 531 654.8 527C682 523 709 529 736.2 535C763.3 541 790.7 547 818 542C845.3 537 872.7 521 886.3 513L900 505L900 341L886.3 354C872.7 367 845.3 393 818 405C790.7 417 763.3 415 736.2 411C709 407 682 401 654.8 400C627.7 399 600.3 403 573 402C545.7 401 518.3 395 491 399C463.7 403 436.3 417 409 433C381.7 449 354.3 467 327 465C299.7 463 272.3 441 245.2 437C218 433 191 447 163.8 453C136.7 459 109.3 457 82 447C54.7 437 27.3 419 13.7 410L0 401Z" fill="#322c64"></path><path d="M0 601L13.7 601C27.3 601 54.7 601 82 601C109.3 601 136.7 601 163.8 601C191 601 218 601 245.2 601C272.3 601 299.7 601 327 601C354.3 601 381.7 601 409 601C436.3 601 463.7 601 491 601C518.3 601 545.7 601 573 601C600.3 601 627.7 601 654.8 601C682 601 709 601 736.2 601C763.3 601 790.7 601 818 601C845.3 601 872.7 601 886.3 601L900 601L900 503L886.3 511C872.7 519 845.3 535 818 540C790.7 545 763.3 539 736.2 533C709 527 682 521 654.8 525C627.7 529 600.3 543 573 551C545.7 559 518.3 561 491 551C463.7 541 436.3 519 409 519C381.7 519 354.3 541 327 552C299.7 563 272.3 563 245.2 557C218 551 191 539 163.8 538C136.7 537 109.3 547 82 552C54.7 557 27.3 557 13.7 557L0 557Z" fill="#2a2655"></path></svg>